<svg width="113" height="44" viewBox="0 0 113 44" fill="none" xmlns="http://www.w3.org/2000/svg">
<path d="M20.9039 -3.8147e-06C15.0003 -3.8147e-06 10.2143 4.65478 10.2143 10.3965C10.2143 16.1381 15.0003 20.7929 20.9039 20.7929C26.8076 20.7929 31.5936 16.1381 31.5936 10.3965C31.5936 4.65478 26.8076 -3.8147e-06 20.9039 -3.8147e-06ZM27.3776 14.1313C27.9559 13.0841 28.2839 11.8878 28.2839 10.6161H17.6046V9.46113H28.1918C28.1151 6.06062 24.4549 3.17802 20.6352 3.17802C17.8017 3.17802 15.242 4.63695 13.9215 6.86384L12.5236 6.20732C14.1624 3.71134 17.1854 2.03803 20.6448 2.03803C25.8492 2.03803 30.0677 5.35466 30.0677 10.503C30.0677 11.8011 29.6585 13.0314 29.0764 14.1313H27.3776Z" fill="#1357FF"/>
<path d="M8.29873 13.7805V25.6894C8.20831 25.6918 8.11789 25.6931 8.02747 25.6931C3.59351 25.6931 1.52588e-05 23.0257 1.52588e-05 19.735C1.52588e-05 16.4443 3.59351 13.7769 8.02747 13.7769C8.11789 13.7769 8.20831 13.7781 8.29873 13.7805Z" fill="#1357FF"/>
<path d="M8.83757 13.7769L21.0006 25.6063H8.83757V13.7769Z" fill="#1357FF"/>
<path d="M20.6503 26.1395V44C14.1875 43.226 8.96062 35.8815 8.92479 26.1395H20.6503Z" fill="#1357FF"/>
<path d="M33.614 13.7805V25.6894C33.7044 25.6918 33.7948 25.6931 33.8853 25.6931C38.3192 25.6931 41.9127 23.0257 41.9127 19.735C41.9127 16.4443 38.3192 13.7769 33.8853 13.7769C33.7948 13.7769 33.7044 13.7781 33.614 13.7805Z" fill="#1357FF"/>
<path d="M33.0705 13.7769L20.9075 25.6063H33.0705V13.7769Z" fill="#1357FF"/>
<path d="M21.2663 26.1395V44C27.7291 43.226 32.956 35.8815 32.9918 26.1395H21.2663Z" fill="#1357FF"/>
<path d="M49.5242 8.16157C49.5242 8.16157 49.5242 8.87846 49.5242 9.55565C48.4604 9.26549 46.3165 9.34532 46.3165 9.34532V16.7684H45.0994V8.16157H49.5242Z" fill="#1357FF"/>
<path d="M63.0698 8.16157V16.7684H61.8526V9.34532H58.45V16.7684H57.2324V8.16157H63.0698Z" fill="#1357FF"/>
<path d="M77.6693 8.16197L75.7588 14.7138C75.7588 14.715 75.7576 14.7162 75.7576 14.7174C75.5713 15.2576 75.1651 15.8132 75.0051 15.9778C73.8342 17.1765 72.1487 16.6971 72.1487 16.6971V15.2268C73.8938 16.2197 74.2721 14.7134 74.2721 14.7134L71.5887 8.16157H72.8987L74.9471 13.1596L76.403 8.16197H77.6693Z" fill="#1357FF"/>
<path d="M55.3279 12.4309C55.1808 12.2425 54.9896 12.0569 54.7433 11.8709C54.4966 11.6853 53.965 11.5836 53.6537 11.5836H51.8932V9.34492H55.3279V8.16157H50.6761V16.7684H53.4462C53.84 16.7684 54.2296 16.6667 54.5617 16.4608C55.2354 16.0426 55.8071 15.3233 55.8071 14.176C55.8067 13.5057 55.7384 12.9558 55.3279 12.4309ZM53.5712 15.5271C53.442 15.5672 53.3066 15.5847 53.1712 15.5847H51.8932V12.7689H53.1558C53.3158 12.7689 53.4745 12.7941 53.6245 12.848C53.99 12.9809 54.5537 13.3262 54.5537 14.1849C54.5533 15.0862 53.9325 15.4124 53.5712 15.5271Z" fill="#1357FF"/>
<path d="M67.8385 7.92573C65.888 7.92573 64.5263 9.74858 64.5263 12.3613C64.5263 15.0141 65.9193 16.9386 67.8385 16.9386C69.4882 16.9386 71.1508 15.5239 71.1508 12.3613C71.1508 9.0872 69.3669 7.92573 67.8385 7.92573ZM67.8385 15.6832C66.6368 15.6832 65.8172 14.1955 65.8172 12.3613C65.8172 10.5259 66.6006 9.18122 67.8385 9.18122C68.9552 9.18122 69.8599 10.1907 69.8599 12.3613C69.8599 14.5103 68.9552 15.6832 67.8385 15.6832Z" fill="#1357FF"/>
<path d="M56.926 19.058H54.465L51.7203 28.1297L48.9756 19.058H46.5146L45.0812 32.7427H47.5939L48.171 23.3845L50.9561 32.7447H51.7203H52.4849L55.2696 23.3845L55.8467 32.7427H58.3594L56.926 19.058Z" fill="#1357FF"/>
<path d="M60.8915 32.7448V19.058H68.1002V21.9791C68.1002 21.9791 67.1185 21.4474 63.3616 21.6225V32.7452H60.8915V32.7448Z" fill="#1357FF"/>
<path d="M79.1325 32.7443H75.9802L72.4938 26.8239H72.1826V32.7443H69.6733V19.058H72.1826V24.4913H72.5609L75.7365 19.058H78.6666L74.6248 25.5709L79.1325 32.7443Z" fill="#1357FF"/>
<path d="M79.9902 23.0803C79.9902 23.0803 81.2449 21.5273 83.3008 21.5974C85.3567 21.6675 86.0784 23.3165 86.0784 24.2636H81.1728V27.1053H86.0784C86.0784 27.1053 86.1626 30.2282 83.2029 30.2059C81.0415 30.1897 79.874 28.7895 79.874 28.7895V32.017C79.874 32.017 81.1119 32.894 83.4116 32.8753C85.7109 32.8567 87.9598 31.1858 88.416 28.8349C88.9194 26.2417 88.8256 23.6991 88.361 22.2308C87.8843 20.7245 86.3668 18.8944 83.7146 18.832C81.3244 18.7756 80.0106 19.702 80.0106 19.702L79.9902 23.0803Z" fill="#1357FF"/>
<path d="M91.1616 19.058V32.7447H93.3851L98.3586 23.9717V32.7447H100.728V19.058H98.3295L93.5021 27.8983V19.058H91.1616Z" fill="#1357FF"/>
<path d="M112.128 22.003V19.058H108.419H106.017H102.308V22.003C102.308 22.003 103.72 21.614 105.993 21.614V29.6429L105.986 32.7443H105.993H108.443H108.45L108.443 29.6429V21.614C110.716 21.614 112.128 22.003 112.128 22.003Z" fill="#1357FF"/>
</svg>

